<!-- 购物车图标 -->
<svg t="1576321314655" class="icon" viewBox="0 0 1024 1024" version="1.1" xmlns="http://www.w3.org/2000/svg" p-id="5136" width="200" height="200"><path d="M391.25 820.42c21.862 0 39.584-17.726 39.584-39.584 0-21.862-17.722-39.582-39.584-39.582-21.858 0-39.582 17.72-39.582 39.582C351.668 802.694 369.392 820.42 391.25 820.42zM628.754 820.42c21.858 0 39.584-17.726 39.584-39.584 0-21.862-17.724-39.582-39.584-39.582-21.866 0-39.584 17.72-39.584 39.582C589.168 802.694 606.888 820.42 628.754 820.42zM510 10C233.858 10 10 233.858 10 510s223.858 500 500 500 500-223.858 500-500S786.142 10 510 10zM824.774 333.832l-57.484 249.086-19.792 0-435.414 35.418 0 4.166c0 21.86 17.722 39.582 39.584 39.582l455.208 0c0 19.956 0.62 39.582 0 39.582l-178.122 0c43.72 0 79.166 35.444 79.166 79.168 0 43.724-35.444 79.17-79.166 79.17-43.724 0-79.168-35.444-79.168-79.17 0-43.724 35.444-79.168 79.168-79.168L391.25 701.666c43.724 0 79.168 35.444 79.168 79.168 0 43.724-35.444 79.17-79.168 79.17-43.72 0-79.166-35.444-79.166-79.17 0-43.724 35.444-79.168 79.166-79.168l-39.582 0c-43.724 0-79.168-35.442-79.168-79.164L272.5 266.254l-59.374 0c-10.932 0-19.792-8.862-19.792-19.792 0-10.93 8.86-19.798 19.792-19.798l118.75 0c10.928 0 19.792 8.868 19.792 19.798 0 10.93-8.864 19.792-19.792 19.792l-19.792 0 0 39.582 494.792 0c10.93 0 19.792 8.86 19.792 19.792C826.668 328.578 825.932 331.318 824.774 333.832zM312.084 581.358l424.392-33.508 50.606-202.428-475 0L312.082 581.358z" p-id="5137" data-spm-anchor-id="a313x.7781069.0.i8" class="selected" fill="#d4237a"></path></svg>