<svg t="1586067886097" class="icon" viewBox="0 0 1024 1024" version="1.1" xmlns="http://www.w3.org/2000/svg" p-id="5797" width="200" height="200"><path d="M768 1024H256c-143.36 0-256-112.64-256-256V256c0-143.36 112.64-256 256-256h512c143.36 0 256 112.64 256 256v512c0 143.36-112.64 256-256 256zM563.2 153.6H460.8c-30.72 0-51.2 20.48-51.2 51.2s20.48 51.2 51.2 51.2h102.4c30.72 0 51.2-20.48 51.2-51.2s-20.48-51.2-51.2-51.2z m256 153.6c0-56.32-46.08-102.4-102.4-102.4h-51.2v51.2c0 30.72-20.48 51.2-51.2 51.2H409.6c-30.72 0-51.2-20.48-51.2-51.2V204.8H307.2c-56.32 0-102.4 46.08-102.4 102.4v460.8c0 56.32 46.08 102.4 102.4 102.4h409.6c56.32 0 102.4-46.08 102.4-102.4V307.2zM307.2 563.2h409.6v51.2H307.2v-51.2z m0-153.6h409.6v51.2H307.2V409.6z m256 358.4H307.2v-51.2h256v51.2z" fill="#d4237a" p-id="5798"></path></svg>