<svg t="1577262944069" class="icon" viewBox="0 0 1024 1024" version="1.1" xmlns="http://www.w3.org/2000/svg" p-id="3549" width="200" height="200"><path d="M958.208949 342.322529c0 0 0 80.785931 0 111.557772 0 37.386492-7.495002 62.064544-27.17808 85.205591l0 309.198108c0 62.092174-53.721683 112.435769-117.764856 112.435769L204.561151 960.719768c-64.044196 0-115.954553-50.343595-115.954553-112.435769l-0.851426-309.198108c-17.376451-21.658276-28.13798-54.378491-28.13798-84.326571 0-16.003486 0.22002-44.002167 0.713274-56.218396l-0.713274-56.218396L223.008024 61.23362l571.810093 0L958.208949 342.322529M144.031132 848.283999c0 31.046087 28.494105 56.218396 60.530018 56.218396l608.704863 0c32.03489 0 62.341345-25.172309 62.341345-56.218396l0-56.218396L144.031132 792.065604 144.031132 848.283999zM144.031132 735.848231 875.607358 735.848231 875.607358 564.916187c-7.192091 1.344624-22.12581 2.278903-30.361716 2.278903-53.228429 0-100.471296-30.195719-125.973131-72.357981-21.797315 41.779545-64.895621 72.357981-106.511096 72.357981-41.944993 0-88.091853-26.352181-103.848345-62.284555-15.755468 36.811394-62.890883 62.284555-105.713908 62.284555-40.518446 0-82.985346-28.081569-105.714932-68.130703-20.259223 41.202401-68.134518 68.130703-98.330452 68.130703-14.76896 0-41.944993 1.619894-55.121624-3.047406L144.032156 735.848231zM114.136063 454.758298c0 38.815027 43.620214 57.096393 85.895748 57.096393 41.671759 0 85.09856-28.822442 85.09856-57.096393l26.600911 0c0 36.261878 49.466602 56.218396 92.812558 56.218396 41.561237 0 90.754605-27.861558 90.754605-56.218396l27.231294 0c0 27.477818 48.369573 56.218396 89.93081 56.218396 43.344933 0 93.690591-27.861558 93.690591-56.218396l26.573281 0c0 28.850072 66.953575 56.272631 112.166118 56.30026 39.145113 0.027629 58.471042-17.485233 58.855821-56.30026l0 0 0-56.218396L114.081826 398.539902 114.136063 454.758298zM904.677608 342.322529l-0.93227 0-133.74239-224.871537L247.933714 117.450992l-130.969117 224.871537L904.677608 342.322529 904.677608 342.322529z" p-id="3550" fill="#d4237a"></path></svg>